# xmcd
#
# Track frame offsets: 
#        182
#        25002
#        45572
#        67475
#        82040
#        104047
#        126660
#        140877
#        165022
#
# Disc length: 2676 seconds
#
# Revision: 0
# Processed by: cddbd v1.5.2PL0 Copyright (c) Steve Scherf et al.
# Submitted via: ExactAudioCopy v0.99pb4
#
DISCID=850a7209
DTITLE=Billy Paul - Got My Head On Straight
DYEAR=1975
DGENRE=Soul
TTITLE0=July, July, July, July
TTITLE1=Billy's Back Home
TTITLE2=I've Got So Much To Live For
TTITLE3=My Head's On Straight
TTITLE4=Enlightenment
TTITLE5=When It's Your Time To Go
TTITLE6=Be Truthful To Me
TTITLE7=Everything Must Change
TTITLE8=Black Wonders Of The World
EXTD=
EXTT0=
EXTT1=
EXTT2=
EXTT3=
EXTT4=
EXTT5=
EXTT6=
EXTT7=
EXTT8=
PLAYORDER=
